# xmcd CD database file
#
# Track frame offsets:
#	150
#	19880
#	35306
#	54065
#	70149
#	89685
#	111929
#	129154
#	149052
#	167031
#	189201
#	213901
#	238225
#	255455
#	276356
#
# Disc length: 3879 seconds
#
# Revision: 0
# Processed by: cddbd v1.5.1PL0 Copyright (c) Steve Scherf et al.
# Submitted via: CDex 1.50
#
DISCID=d50f250f
DTITLE=Buddy DeFranco - Nobody Else But Me
DYEAR=1983
DGENRE=Jazz
TTITLE0=Just Friends
TTITLE1=Autumn Leaves
TTITLE2=My Man's Gone
TTITLE3=Nobody Else But Me
TTITLE4=The Lamp Is Low
TTITLE5=This Is All I Ask
TTITLE6=A Sure Thing
TTITLE7=Opus III
TTITLE8=Deep Night
TTITLE9=Five Notes Of Blues
TTITLE10=Moon Song
TTITLE11=Goodbye
TTITLE12=All Too Soon
TTITLE13=Lisanne
TTITLE14=Lover
EXTD=YEAR: 1983
EXTT0=
EXTT1=
EXTT2=
EXTT3=
EXTT4=
EXTT5=
EXTT6=
EXTT7=
EXTT8=
EXTT9=
EXTT10=
EXTT11=
EXTT12=
EXTT13=
EXTT14=
PLAYORDER=
